<?xml version='1.0' encoding='ascii'?>
<svg xmlns="http://www.w3.org/2000/svg" height="540" version="1.1" width="960">
    <g id="RenderLayer_LineSet" inkscape:groupmode="lineset" inkscape:label="RenderLayer_LineSet" xmlns:inkscape="http://www.inkscape.org/namespaces/inkscape">
        <g id="strokes" inkscape:groupmode="layer" inkscape:label="strokes" xmlns:inkscape="http://www.inkscape.org/namespaces/inkscape">
            <path d=" M 469.984, 343.519 469.988, 343.520 470.028, 343.531 470.261, 343.601 470.348, 343.627 470.757, 343.750 471.474, 343.964 471.975, 344.096 474.347, 344.439 476.443, 344.266 478.779, 343.367 479.306, 343.137 481.209, 342.073 481.614, 341.847 483.903, 340.305 486.148, 338.698 488.380, 337.013 490.688, 335.118 493.099, 332.865 495.547, 330.191 497.154, 328.097 497.875, 327.158 499.928, 323.964 501.604, 320.851 503.173, 317.292 504.188, 314.683 504.897, 312.233 505.284, 309.862 505.299, 309.351 505.307, 307.064 504.800, 304.811 504.593, 304.389 503.764, 302.703 502.001, 300.539 500.310, 299.218 498.000, 298.002 496.267, 297.542 495.525, 297.500 493.980, 297.416 492.506, 297.604 491.080, 297.941 489.689, 298.393 488.179, 298.973 486.809, 299.542 485.448, 300.160 485.328, 300.215 484.012, 300.766 " fill="none" stroke="rgb(0, 0, 0)" stroke-linecap="butt" stroke-linejoin="round" stroke-opacity="1.0" stroke-width="3.0" />
            <path d=" M 469.482, 343.754 469.504, 343.754 469.560, 343.754 469.590, 343.754 469.607, 343.753 469.708, 343.753 469.983, 343.752 470.757, 343.750 " fill="none" stroke="rgb(0, 0, 0)" stroke-linecap="butt" stroke-linejoin="round" stroke-opacity="1.0" stroke-width="3.0" />
            <path d=" M 469.050, 344.071 469.208, 344.017 469.371, 343.961 469.423, 343.944 469.444, 343.936 469.983, 343.752 " fill="none" stroke="rgb(0, 0, 0)" stroke-linecap="butt" stroke-linejoin="round" stroke-opacity="1.0" stroke-width="3.0" />
            <path d=" M 468.784, 344.394 469.308, 344.031 469.401, 343.966 469.444, 343.936 " fill="none" stroke="rgb(0, 0, 0)" stroke-linecap="butt" stroke-linejoin="round" stroke-opacity="1.0" stroke-width="3.0" />
            <path d=" M 468.822, 344.565 469.401, 343.966 " fill="none" stroke="rgb(0, 0, 0)" stroke-linecap="butt" stroke-linejoin="round" stroke-opacity="1.0" stroke-width="3.0" />
            <path d=" M 480.349, 302.285 482.098, 301.653 " fill="none" stroke="rgb(0, 0, 0)" stroke-linecap="butt" stroke-linejoin="round" stroke-opacity="1.0" stroke-width="3.0" />
            <path d=" M 485.448, 300.160 484.264, 300.599 483.217, 300.952 " fill="none" stroke="rgb(0, 0, 0)" stroke-linecap="butt" stroke-linejoin="round" stroke-opacity="1.0" stroke-width="3.0" />
            <path d=" M 484.012, 300.766 482.627, 301.262 " fill="none" stroke="rgb(0, 0, 0)" stroke-linecap="butt" stroke-linejoin="round" stroke-opacity="1.0" stroke-width="3.0" />
            <path d=" M 382.456, 312.004 382.963, 312.228 384.951, 313.107 384.953, 313.107 385.141, 313.191 387.278, 314.269 387.999, 314.709 388.226, 314.848 388.287, 314.885 388.326, 314.909 388.842, 315.224 388.963, 315.298 " fill="none" stroke="rgb(0, 0, 0)" stroke-linecap="butt" stroke-linejoin="round" stroke-opacity="1.0" stroke-width="3.0" />
            <path d=" M 352.367, 364.597 352.074, 365.598 351.911, 366.333 351.740, 367.447 351.697, 368.491 351.744, 369.227 351.835, 370.243 352.069, 371.178 352.284, 371.828 352.655, 372.716 353.145, 373.515 353.719, 374.239 354.172, 374.699 354.367, 374.889 354.837, 375.339 355.557, 375.938 356.294, 376.518 357.094, 377.059 357.931, 377.584 358.826, 378.074 359.762, 378.569 359.866, 378.618 360.766, 379.038 362.611, 379.720 363.790, 380.047 364.663, 380.261 365.670, 380.513 366.808, 380.825 368.025, 381.277 " fill="none" stroke="rgb(0, 0, 0)" stroke-linecap="butt" stroke-linejoin="round" stroke-opacity="1.0" stroke-width="3.0" />
            <path d=" M 374.101, 309.212 374.835, 309.353 " fill="none" stroke="rgb(0, 0, 0)" stroke-linecap="butt" stroke-linejoin="round" stroke-opacity="1.0" stroke-width="3.0" />
            <path d=" M 374.778, 309.336 374.835, 309.353 376.404, 309.805 " fill="none" stroke="rgb(0, 0, 0)" stroke-linecap="butt" stroke-linejoin="round" stroke-opacity="1.0" stroke-width="3.0" />
            <path d=" M 391.711, 316.901 392.039, 317.066 393.694, 317.706 395.306, 318.256 397.002, 318.711 398.611, 319.021 400.161, 319.237 401.647, 319.398 402.483, 319.498 402.954, 319.554 " fill="none" stroke="rgb(0, 0, 0)" stroke-linecap="butt" stroke-linejoin="round" stroke-opacity="1.0" stroke-width="3.0" />
            <path d=" M 351.273, 326.045 350.305, 327.399 349.062, 329.057 347.773, 330.713 346.458, 332.379 345.136, 334.076 344.416, 335.074 343.875, 335.846 343.160, 336.866 342.063, 338.732 341.226, 340.652 340.964, 341.561 340.596, 343.502 340.620, 344.439 340.791, 346.244 341.083, 347.145 341.723, 348.619 342.281, 349.384 343.243, 350.388 343.978, 350.959 345.074, 351.502 345.878, 351.867 346.936, 352.117 347.726, 352.291 348.555, 352.371 349.415, 352.425 349.857, 352.413 350.337, 352.400 351.282, 352.396 351.785, 352.450 351.956, 352.468 352.005, 352.473 352.107, 352.484 352.217, 352.496 " fill="none" stroke="rgb(0, 0, 0)" stroke-linecap="butt" stroke-linejoin="round" stroke-opacity="1.0" stroke-width="3.0" />
            <path d=" M 351.011, 352.002 351.573, 351.767 352.023, 351.579 353.864, 351.128 355.707, 350.918 355.714, 350.917 " fill="none" stroke="rgb(0, 0, 0)" stroke-linecap="butt" stroke-linejoin="round" stroke-opacity="1.0" stroke-width="3.0" />
            <path d=" M 355.707, 350.918 357.383, 350.810 359.899, 350.716 362.004, 350.735 363.897, 350.852 365.430, 350.996 366.521, 351.131 367.208, 351.276 " fill="none" stroke="rgb(0, 0, 0)" stroke-linecap="butt" stroke-linejoin="round" stroke-opacity="1.0" stroke-width="3.0" />
            <path d=" M 402.483, 319.498 403.037, 319.572 403.989, 319.759 " fill="none" stroke="rgb(0, 0, 0)" stroke-linecap="butt" stroke-linejoin="round" stroke-opacity="1.0" stroke-width="3.0" />
            <path d=" M 398.550, 323.609 397.168, 323.811 " fill="none" stroke="rgb(0, 0, 0)" stroke-linecap="butt" stroke-linejoin="round" stroke-opacity="1.0" stroke-width="3.0" />
            <path d=" M 388.788, 315.253 389.083, 315.469 390.444, 316.301 391.711, 316.901 391.934, 317.006 392.044, 317.048 392.650, 317.275 393.551, 317.615 " fill="none" stroke="rgb(0, 0, 0)" stroke-linecap="butt" stroke-linejoin="round" stroke-opacity="1.0" stroke-width="3.0" />
            <path d=" M 375.745, 309.569 376.404, 309.805 379.133, 310.780 380.729, 311.401 382.963, 312.228 " fill="none" stroke="rgb(0, 0, 0)" stroke-linecap="butt" stroke-linejoin="round" stroke-opacity="1.0" stroke-width="3.0" />
            <path d=" M 499.361, 324.398 497.398, 327.428 497.212, 327.664 495.156, 330.264 " fill="none" stroke="rgb(0, 0, 0)" stroke-linecap="butt" stroke-linejoin="round" stroke-opacity="1.0" stroke-width="3.0" />
            <path d=" M 481.995, 341.138 484.150, 339.819 486.255, 338.369 488.348, 336.758 490.517, 334.918 492.805, 332.768 " fill="none" stroke="rgb(0, 0, 0)" stroke-linecap="butt" stroke-linejoin="round" stroke-opacity="1.0" stroke-width="3.0" />
            <path d=" M 505.284, 309.862 505.265, 307.541 504.753, 305.266 504.454, 304.647 503.726, 303.143 502.251, 301.382 500.464, 300.166 " fill="none" stroke="rgb(0, 0, 0)" stroke-linecap="butt" stroke-linejoin="round" stroke-opacity="1.0" stroke-width="3.0" />
            <path d=" M 477.515, 320.202 477.662, 319.656 " fill="none" stroke="rgb(0, 0, 0)" stroke-linecap="butt" stroke-linejoin="round" stroke-opacity="1.0" stroke-width="3.0" />
            <path d=" M 359.866, 378.618 359.891, 379.187 359.866, 380.449 359.901, 381.650 359.971, 382.789 360.069, 383.814 360.213, 384.703 360.456, 385.426 360.617, 385.952 360.888, 386.572 361.305, 387.412 361.735, 388.146 362.346, 388.958 362.924, 389.698 363.689, 390.454 364.383, 391.114 365.250, 391.805 366.180, 392.469 366.929, 393.007 367.875, 393.656 368.828, 394.324 369.800, 394.977 370.826, 395.585 371.939, 396.115 372.765, 396.501 374.004, 396.956 374.836, 397.208 376.164, 397.607 377.580, 397.924 378.336, 398.090 379.798, 398.334 381.374, 398.464 381.986, 398.481 383.605, 398.504 385.330, 398.440 387.167, 398.261 389.282, 397.985 391.234, 397.678 392.999, 397.445 393.129, 397.428 " fill="none" stroke="rgb(0, 0, 0)" stroke-linecap="butt" stroke-linejoin="round" stroke-opacity="1.0" stroke-width="3.0" />
            <path d=" M 349.857, 352.413 349.791, 352.670 349.494, 353.757 349.170, 354.814 348.883, 355.762 348.722, 356.847 348.811, 357.875 348.864, 358.171 348.974, 358.564 349.342, 359.782 349.514, 360.305 349.812, 360.880 350.184, 361.536 350.937, 362.768 351.412, 363.447 351.962, 364.156 352.367, 364.597 352.601, 364.851 353.316, 365.516 354.319, 366.297 355.072, 366.823 355.917, 367.245 356.901, 367.731 357.698, 368.099 358.535, 368.457 359.424, 368.805 360.196, 369.076 361.084, 369.377 362.015, 369.669 362.977, 369.948 363.972, 370.202 364.969, 370.491 365.986, 370.782 367.043, 371.064 368.148, 371.356 368.906, 371.564 " fill="none" stroke="rgb(0, 0, 0)" stroke-linecap="butt" stroke-linejoin="round" stroke-opacity="1.0" stroke-width="3.0" />
            <path d=" M 368.866, 371.552 368.906, 371.564 370.103, 371.906 371.385, 372.222 372.693, 372.490 374.000, 372.705 374.965, 372.849 376.121, 373.003 377.060, 373.147 377.701, 373.257 378.223, 373.377 378.249, 373.436 378.275, 373.498 378.372, 373.719 " fill="none" stroke="rgb(0, 0, 0)" stroke-linecap="butt" stroke-linejoin="round" stroke-opacity="1.0" stroke-width="3.0" />
            <path d=" M 378.277, 373.609 378.372, 373.719 378.472, 373.744 378.651, 373.719 " fill="none" stroke="rgb(0, 0, 0)" stroke-linecap="butt" stroke-linejoin="round" stroke-opacity="1.0" stroke-width="3.0" />
            <path d=" M 362.528, 305.911 362.805, 307.019 362.741, 308.397 362.280, 309.807 361.538, 311.269 360.549, 312.771 359.455, 314.333 358.272, 315.942 357.086, 317.600 355.886, 319.278 354.688, 320.978 354.622, 321.074 353.513, 322.696 352.357, 324.427 351.273, 326.045 351.194, 326.163 " fill="none" stroke="rgb(0, 0, 0)" stroke-linecap="butt" stroke-linejoin="round" stroke-opacity="1.0" stroke-width="3.0" />
            <path d=" M 342.931, 282.893 343.345, 285.399 343.562, 286.086 344.433, 288.234 345.464, 289.840 346.014, 290.601 347.020, 291.697 347.841, 292.380 348.689, 293.075 349.291, 293.465 350.421, 294.018 350.876, 294.187 351.360, 294.350 " fill="none" stroke="rgb(0, 0, 0)" stroke-linecap="butt" stroke-linejoin="round" stroke-opacity="1.0" stroke-width="3.0" />
            <path d=" M 504.593, 304.389 505.812, 302.130 507.489, 298.816 509.041, 295.377 510.376, 291.814 511.182, 289.409 512.318, 285.646 513.330, 281.846 514.163, 278.026 514.722, 275.148 515.359, 271.174 515.768, 267.204 515.987, 263.996 516.144, 259.897 516.061, 255.853 515.872, 252.397 515.513, 248.349 514.905, 244.434 514.236, 240.914 513.305, 237.079 512.196, 233.687 510.863, 230.002 509.209, 226.528 507.565, 223.311 505.513, 220.021 503.489, 217.037 501.104, 213.923 498.800, 211.261 496.138, 208.458 493.653, 206.180 490.756, 203.796 488.210, 201.854 482.616, 198.125 480.045, 196.661 476.761, 194.952 474.046, 193.719 470.475, 192.351 467.529, 191.327 463.779, 190.349 460.738, 189.571 457.606, 189.022 453.817, 188.523 450.603, 188.246 447.208, 188.229 443.585, 188.266 440.248, 188.572 436.749, 188.937 433.232, 189.513 430.178, 190.072 426.788, 190.837 423.910, 191.611 420.664, 192.601 414.869, 194.719 411.747, 195.966 409.338, 196.940 406.327, 198.237 401.218, 200.707 398.377, 202.229 395.575, 203.834 393.776, 204.903 391.159, 206.557 388.650, 208.344 387.184, 209.409 384.862, 211.216 382.613, 213.117 381.473, 214.118 379.413, 216.028 377.408, 218.013 375.443, 220.062 374.700, 220.851 372.848, 222.882 371.010, 225.010 369.174, 227.235 367.332, 229.562 365.505, 232.008 363.684, 234.548 361.871, 237.171 360.242, 239.659 358.477, 242.511 356.802, 245.435 355.255, 248.423 353.884, 251.472 352.743, 254.384 351.691, 257.363 350.706, 260.289 349.817, 262.832 348.810, 265.476 347.761, 267.986 346.706, 270.391 345.646, 272.733 344.707, 274.802 344.589, 275.102 344.547, 275.218 343.684, 277.583 " fill="none" stroke="rgb(0, 0, 0)" stroke-linecap="butt" stroke-linejoin="round" stroke-opacity="1.0" stroke-width="3.0" />
            <path d=" M 344.547, 275.218 343.771, 277.232 343.684, 277.583 343.157, 279.776 343.091, 280.214 343.007, 281.621 342.931, 282.893 342.948, 282.345 343.007, 281.621 " fill="none" stroke="rgb(0, 0, 0)" stroke-linecap="butt" stroke-linejoin="round" stroke-opacity="1.0" stroke-width="3.0" />
            <path d=" M 353.549, 301.407 353.335, 302.512 353.053, 304.228 352.913, 305.894 352.903, 306.470 352.862, 308.152 352.990, 310.491 353.298, 312.929 353.542, 314.589 353.899, 316.657 " fill="none" stroke="rgb(0, 0, 0)" stroke-linecap="butt" stroke-linejoin="round" stroke-opacity="1.0" stroke-width="3.0" />
            <path d=" M 349.377, 292.720 350.238, 293.438 350.363, 293.542 350.756, 293.870 350.760, 293.874 351.090, 294.149 351.360, 294.350 351.841, 294.710 352.242, 295.009 352.404, 295.130 353.029, 295.597 353.958, 296.322 354.541, 296.872 354.560, 296.890 354.561, 296.891 354.635, 296.960 356.914, 299.109 358.623, 300.755 " fill="none" stroke="rgb(0, 0, 0)" stroke-linecap="butt" stroke-linejoin="round" stroke-opacity="1.0" stroke-width="3.0" />
            <path d=" M 353.832, 316.212 353.899, 316.657 354.217, 318.780 354.514, 320.400 354.622, 321.074 " fill="none" stroke="rgb(0, 0, 0)" stroke-linecap="butt" stroke-linejoin="round" stroke-opacity="1.0" stroke-width="3.0" />
            <path d=" M 357.541, 299.653 358.623, 300.755 359.303, 301.447 359.639, 301.790 " fill="none" stroke="rgb(0, 0, 0)" stroke-linecap="butt" stroke-linejoin="round" stroke-opacity="1.0" stroke-width="3.0" />
            <path d=" M 359.303, 301.447 360.796, 303.139 362.048, 304.889 362.132, 305.006 362.239, 305.252 362.528, 305.911 362.677, 306.251 " fill="none" stroke="rgb(0, 0, 0)" stroke-linecap="butt" stroke-linejoin="round" stroke-opacity="1.0" stroke-width="3.0" />
            <path d=" M 352.280, 296.185 352.289, 296.415 352.306, 296.668 352.427, 297.886 352.660, 299.046 352.738, 299.360 353.096, 300.458 353.549, 301.407 353.745, 301.819 354.632, 303.080 354.961, 303.460 355.133, 303.667 355.142, 303.677 355.329, 303.902 355.382, 303.966 355.958, 304.659 " fill="none" stroke="rgb(0, 0, 0)" stroke-linecap="butt" stroke-linejoin="round" stroke-opacity="1.0" stroke-width="3.0" />
            <path d=" M 351.841, 294.710 351.865, 294.801 352.063, 295.463 352.280, 296.185 352.323, 296.327 352.560, 296.989 352.774, 297.500 352.922, 297.897 " fill="none" stroke="rgb(0, 0, 0)" stroke-linecap="butt" stroke-linejoin="round" stroke-opacity="1.0" stroke-width="3.0" />
            <path d=" M 384.951, 313.324 384.968, 313.577 385.006, 313.842 385.126, 314.240 385.216, 314.513 385.519, 315.385 385.596, 315.583 " fill="none" stroke="rgb(0, 0, 0)" stroke-linecap="butt" stroke-linejoin="round" stroke-opacity="1.0" stroke-width="3.0" />
            <path d=" M 384.947, 313.138 384.951, 313.324 384.951, 313.192 384.951, 313.107 " fill="none" stroke="rgb(0, 0, 0)" stroke-linecap="butt" stroke-linejoin="round" stroke-opacity="1.0" stroke-width="3.0" />
            <path d=" M 413.896, 406.405 415.017, 407.491 416.410, 408.276 418.020, 408.802 419.781, 409.109 421.671, 409.233 423.656, 409.198 425.685, 409.047 427.712, 408.798 429.761, 408.464 431.853, 408.051 434.053, 407.554 436.406, 407.007 438.886, 406.440 441.443, 405.933 444.108, 405.606 446.925, 405.570 449.712, 405.828 452.308, 406.323 454.738, 406.978 457.052, 407.691 459.322, 408.387 461.620, 409.023 463.722, 408.859 465.259, 407.244 466.680, 405.704 468.628, 405.604 470.822, 405.310 472.677, 403.320 474.440, 401.379 476.522, 401.074 478.797, 400.534 480.932, 397.970 482.961, 395.494 485.055, 395.075 487.302, 394.129 489.634, 390.182 491.905, 385.274 494.127, 381.236 496.159, 377.830 497.752, 374.880 499.021, 372.287 500.064, 369.948 500.928, 367.835 501.656, 365.908 502.185, 364.186 502.455, 362.671 502.501, 361.377 502.367, 360.299 502.140, 359.434 501.909, 358.777 " fill="none" stroke="rgb(0, 0, 0)" stroke-linecap="butt" stroke-linejoin="round" stroke-opacity="1.0" stroke-width="3.0" />
            <path d=" M 497.282, 344.643 497.261, 344.443 496.856, 340.521 496.716, 338.129 496.666, 334.519 " fill="none" stroke="rgb(0, 0, 0)" stroke-linecap="butt" stroke-linejoin="round" stroke-opacity="1.0" stroke-width="3.0" />
            <path d=" M 499.682, 353.877 499.617, 353.676 498.402, 349.932 497.745, 347.222 497.261, 344.443 " fill="none" stroke="rgb(0, 0, 0)" stroke-linecap="butt" stroke-linejoin="round" stroke-opacity="1.0" stroke-width="3.0" />
            <path d=" M 502.140, 359.434 501.265, 357.572 501.197, 357.427 501.174, 357.378 500.805, 356.595 500.736, 356.424 499.617, 353.676 " fill="none" stroke="rgb(0, 0, 0)" stroke-linecap="butt" stroke-linejoin="round" stroke-opacity="1.0" stroke-width="3.0" />
            <path d=" M 392.999, 397.445 394.378, 397.301 396.422, 397.097 398.595, 396.822 400.911, 396.467 402.404, 396.199 403.368, 396.021 404.884, 395.737 406.938, 395.334 407.489, 395.226 410.219, 394.667 410.689, 394.582 411.155, 394.498 413.673, 394.131 414.113, 394.094 414.215, 394.085 415.972, 393.938 " fill="none" stroke="rgb(0, 0, 0)" stroke-linecap="butt" stroke-linejoin="round" stroke-opacity="1.0" stroke-width="3.0" />
            <path d=" M 496.887, 330.111 496.963, 329.538 497.154, 328.097 " fill="none" stroke="rgb(0, 0, 0)" stroke-linecap="butt" stroke-linejoin="round" stroke-opacity="1.0" stroke-width="3.0" />
            <path d=" M 501.909, 358.777 500.736, 356.424 " fill="none" stroke="rgb(0, 0, 0)" stroke-linecap="butt" stroke-linejoin="round" stroke-opacity="1.0" stroke-width="3.0" />
            <path d=" M 406.938, 395.334 408.609, 398.628 409.639, 400.344 410.552, 401.710 411.684, 403.310 412.834, 404.845 413.896, 406.405 " fill="none" stroke="rgb(0, 0, 0)" stroke-linecap="butt" stroke-linejoin="round" stroke-opacity="1.0" stroke-width="3.0" />
            <path d=" M 496.609, 335.907 496.666, 334.519 496.767, 332.045 496.963, 329.538 " fill="none" stroke="rgb(0, 0, 0)" stroke-linecap="butt" stroke-linejoin="round" stroke-opacity="1.0" stroke-width="3.0" />
            <path d=" M 349.275, 292.773 350.363, 293.542 " fill="none" stroke="rgb(0, 0, 0)" stroke-linecap="butt" stroke-linejoin="round" stroke-opacity="1.0" stroke-width="3.0" />
            <path d=" M 350.322, 293.693 350.760, 293.874 " fill="none" stroke="rgb(0, 0, 0)" stroke-linecap="butt" stroke-linejoin="round" stroke-opacity="1.0" stroke-width="3.0" />
            <path d=" M 352.058, 352.520 352.462, 352.729 " fill="none" stroke="rgb(0, 0, 0)" stroke-linecap="butt" stroke-linejoin="round" stroke-opacity="1.0" stroke-width="3.0" />
            <path d=" M 351.785, 352.450 352.058, 352.520 352.221, 352.563 352.586, 352.658 " fill="none" stroke="rgb(0, 0, 0)" stroke-linecap="butt" stroke-linejoin="round" stroke-opacity="1.0" stroke-width="3.0" />
            <path d=" M 355.133, 303.667 355.209, 303.905 " fill="none" stroke="rgb(0, 0, 0)" stroke-linecap="butt" stroke-linejoin="round" stroke-opacity="1.0" stroke-width="3.0" />
            <path d=" M 355.329, 303.902 355.566, 304.325 " fill="none" stroke="rgb(0, 0, 0)" stroke-linecap="butt" stroke-linejoin="round" stroke-opacity="1.0" stroke-width="3.0" />
            <path d=" M 362.048, 304.889 362.239, 305.252 " fill="none" stroke="rgb(0, 0, 0)" stroke-linecap="butt" stroke-linejoin="round" stroke-opacity="1.0" stroke-width="3.0" />
            <path d=" M 378.249, 373.436 378.277, 373.609 " fill="none" stroke="rgb(0, 0, 0)" stroke-linecap="butt" stroke-linejoin="round" stroke-opacity="1.0" stroke-width="3.0" />
            <path d=" M 387.999, 314.709 388.788, 315.253 389.038, 315.425 " fill="none" stroke="rgb(0, 0, 0)" stroke-linecap="butt" stroke-linejoin="round" stroke-opacity="1.0" stroke-width="3.0" />
            <path d=" M 392.044, 317.048 393.595, 317.637 " fill="none" stroke="rgb(0, 0, 0)" stroke-linecap="butt" stroke-linejoin="round" stroke-opacity="1.0" stroke-width="3.0" />
            <path d=" M 414.113, 394.094 415.459, 394.172 " fill="none" stroke="rgb(0, 0, 0)" stroke-linecap="butt" stroke-linejoin="round" stroke-opacity="1.0" stroke-width="3.0" />
        </g>
    </g>
</svg>
